<?xml version="1.0" standalone="no"?><!DOCTYPE svg PUBLIC "-//W3C//DTD SVG 1.1//EN" "http://www.w3.org/Graphics/SVG/1.1/DTD/svg11.dtd"><svg class="icon" width="200px" height="200.00px" viewBox="0 0 1024 1024" version="1.1" xmlns="http://www.w3.org/2000/svg"><path fill="#333333" d="M504.900267 335.394133m-88.064 0a88.064 88.064 0 1 0 176.128 0 88.064 88.064 0 1 0-176.128 0Z"  /><path fill="#333333" d="M887.466667 0H136.533333C61.44 0 0 61.44 0 136.533333v750.933334c0 75.093333 61.44 136.533333 136.533333 136.533333h750.933334c75.093333 0 136.533333-61.44 136.533333-136.533333V136.533333c0-75.093333-61.44-136.533333-136.533333-136.533333z m-337.6128 511.351467v130.935466l-31.470934 6.724267 38.434134 24.610133-31.470934 17.885867 24.4736 15.6672-27.9552 15.6672 24.4736 29.0816v89.463467l-41.915733 29.013333-41.949867-31.300267V512a181.691733 181.691733 0 0 1 42.427734-358.4 181.691733 181.691733 0 1 1 44.9536 357.751467z"  /></svg>