<?xml version="1.0" standalone="no"?><!DOCTYPE svg PUBLIC "-//W3C//DTD SVG 1.1//EN" "http://www.w3.org/Graphics/SVG/1.1/DTD/svg11.dtd"><svg class="icon" width="200px" height="200.00px" viewBox="0 0 1024 1024" version="1.1" xmlns="http://www.w3.org/2000/svg"><path d="M512 512m-512 0a512 512 0 1 0 1024 0 512 512 0 1 0-1024 0Z" fill="#EA6B65" /><path d="M519.876923 523.815385c78.769231 0 141.784615-63.015385 141.784615-141.784616s-63.015385-141.784615-141.784615-141.784615-141.784615 63.015385-141.784615 141.784615 63.015385 141.784615 141.784615 141.784616z m118.153846-11.815385c-31.507692 27.569231-70.892308 43.323077-114.215384 43.323077-43.323077 0-82.707692-15.753846-114.215385-43.323077-78.769231 39.384615-129.969231 122.092308-129.969231 216.615385h492.307693c-3.938462-94.523077-55.138462-177.230769-133.907693-216.615385z" fill="#FFFFFF" /></svg>